{
  "source": "C:\\Users\\Peter\\Desktop\\stuff\\MIUN\\quantitative_research\\video_compression\\videos\\BVI-HD\\BVI-HD_CDVL_videos\\ORIG\\PaintingTilting_1920x1080_60fps.mp4",
  "output": "C:\\Users\\Peter\\Desktop\\stuff\\MIUN\\quantitative_research\\video_compression\\compressed_videos\\BVI-HD\\vp9\\1\\PaintingTilting_1920x1080_60fps_vp9.webm",
  "codec": "vp9",
  "ok": "Input #0, mov,mp4,m4a,3gp,3g2,mj2, from 'C:\\Users\\Peter\\Desktop\\stuff\\MIUN\\quantitative_research\\video_compression\\videos\\BVI-HD\\BVI-HD_CDVL_videos\\ORIG\\PaintingTilting_1920x1080_60fps.mp4':\n  Metadata:\n    major_brand     : isom\n    minor_version   : 512\n    compatible_brands: isomiso2avc1mp41\n    encoder         : Lavf54.28.101\n  Duration: 00:00:05.00, start: 0.000000, bitrate: 667707 kb/s\n  Stream #0:0[0x1](und): Video: h264 (High 4:4:4 Predictive) (avc1 / 0x31637661), yuv420p(progressive), 1920x1080, 667702 kb/s, 60 fps, 60 tbr, 60 tbn (default)\n    Metadata:\n      handler_name    : VideoHandler\n      vendor_id       : [0][0][0][0]\n[out#0/webm @ 0000019e23c19180] Codec AVOption b:a (set bitrate (in bits/s)) has not been used for any stream. The most likely reason is either wrong type (e.g. a video option with no video streams) or that it is a private option of some decoder which was not actually used for any stream.\nStream mapping:\n  Stream #0:0 -> #0:0 (h264 (native) -> vp9 (libvpx-vp9))\nPress [q] to stop, [?] for help\n[libvpx-vp9 @ 0000019e248200c0] v1.15.2-100-g40561f514\nOutput #0, webm, to 'C:\\Users\\Peter\\Desktop\\stuff\\MIUN\\quantitative_research\\video_compression\\compressed_videos\\BVI-HD\\vp9\\1\\PaintingTilting_1920x1080_60fps_vp9.webm':\n  Metadata:\n    major_brand     : isom\n    minor_version   : 512\n    compatible_brands: isomiso2avc1mp41\n    encoder         : Lavf62.3.100\n  Stream #0:0(und): Video: vp9, yuv420p(tv, progressive), 1920x1080, q=2-31, 1000 kb/s, 60 fps, 1k tbn (default)\n    Metadata:\n      encoder         : Lavc62.11.100 libvpx-vp9\n      handler_name    : VideoHandler\n      vendor_id       : [0][0][0][0]\n    Side data:\n      cpb: bitrate max/min/avg: 0/0/0 buffer size: 1000000 vbv_delay: N/A\nframe=    0 fps=0.0 q=0.0 size=       0KiB time=N/A bitrate=N/A speed=N/A elapsed=0:00:00.52    \nframe=    5 fps=3.9 q=54.0 size=       1KiB time=00:00:00.08 bitrate=  60.8kbits/s speed=0.0647x elapsed=0:00:01.28    \nframe=   12 fps=6.6 q=53.0 size=       1KiB time=00:00:00.20 bitrate=  25.3kbits/s speed=0.109x elapsed=0:00:01.82    \nframe=   16 fps=6.7 q=51.0 size=       1KiB time=00:00:00.26 bitrate=  19.0kbits/s speed=0.112x elapsed=0:00:02.38    \nframe=   20 fps=6.9 q=52.0 size=       1KiB time=00:00:00.33 bitrate=  15.2kbits/s speed=0.115x elapsed=0:00:02.90    \nframe=   24 fps=7.0 q=52.0 size=       1KiB time=00:00:00.40 bitrate=  12.7kbits/s speed=0.117x elapsed=0:00:03.42    \nframe=   29 fps=7.3 q=51.0 size=       1KiB time=00:00:00.48 bitrate=  10.5kbits/s speed=0.122x elapsed=0:00:03.94    \nframe=   34 fps=7.6 q=52.0 size=       1KiB time=00:00:00.56 bitrate=   8.9kbits/s speed=0.126x elapsed=0:00:04.48    \nframe=   38 fps=7.6 q=50.0 size=       1KiB time=00:00:00.63 bitrate=   8.0kbits/s speed=0.127x elapsed=0:00:05.00    \nframe=   42 fps=7.6 q=47.0 size=       1KiB time=00:00:00.70 bitrate=   7.2kbits/s speed=0.126x elapsed=0:00:05.54    \nframe=   47 fps=7.7 q=48.0 size=       1KiB time=00:00:00.78 bitrate=   6.5kbits/s speed=0.129x elapsed=0:00:06.07    \nframe=   52 fps=7.9 q=46.0 size=       1KiB time=00:00:00.86 bitrate=   5.8kbits/s speed=0.131x elapsed=0:00:06.61    \nframe=   58 fps=8.1 q=45.0 size=       1KiB time=00:00:00.96 bitrate=   5.2kbits/s speed=0.135x elapsed=0:00:07.18    \nframe=   62 fps=8.0 q=45.0 size=       1KiB time=00:00:01.03 bitrate=   4.9kbits/s speed=0.134x elapsed=0:00:07.71    \nframe=   66 fps=8.0 q=44.0 size=       1KiB time=00:00:01.10 bitrate=   4.6kbits/s speed=0.133x elapsed=0:00:08.26    \nframe=   71 fps=8.1 q=45.0 size=       1KiB time=00:00:01.18 bitrate=   4.3kbits/s speed=0.135x elapsed=0:00:08.78    \nframe=   75 fps=8.0 q=45.0 size=       1KiB time=00:00:01.25 bitrate=   4.1kbits/s speed=0.134x elapsed=0:00:09.33    \nframe=   80 fps=8.1 q=44.0 size=       1KiB time=00:00:01.33 bitrate=   3.8kbits/s speed=0.135x elapsed=0:00:09.88    \nframe=   84 fps=8.1 q=45.0 size=       1KiB time=00:00:01.40 bitrate=   3.6kbits/s speed=0.134x elapsed=0:00:10.41    \nframe=   88 fps=8.0 q=43.0 size=       1KiB time=00:00:01.46 bitrate=   3.5kbits/s speed=0.134x elapsed=0:00:10.94    \nframe=   93 fps=8.1 q=44.0 size=       1KiB time=00:00:01.55 bitrate=   3.3kbits/s speed=0.135x elapsed=0:00:11.47    \nframe=   96 fps=8.0 q=45.0 size=       1KiB time=00:00:01.60 bitrate=   3.2kbits/s speed=0.133x elapsed=0:00:11.98    \nframe=  101 fps=8.1 q=43.0 size=       1KiB time=00:00:01.68 bitrate=   3.0kbits/s speed=0.135x elapsed=0:00:12.51    \nframe=  106 fps=8.1 q=44.0 size=       1KiB time=00:00:01.76 bitrate=   2.9kbits/s speed=0.136x elapsed=0:00:13.02    \nframe=  110 fps=8.1 q=46.0 size=       1KiB time=00:00:01.83 bitrate=   2.8kbits/s speed=0.135x elapsed=0:00:13.53    \nframe=  116 fps=8.2 q=44.0 size=       1KiB time=00:00:01.93 bitrate=   2.6kbits/s speed=0.137x elapsed=0:00:14.08    \nframe=  120 fps=8.2 q=44.0 size=       1KiB time=00:00:02.00 bitrate=   2.5kbits/s speed=0.137x elapsed=0:00:14.61    \nframe=  125 fps=8.2 q=44.0 size=       1KiB time=00:00:02.08 bitrate=   2.4kbits/s speed=0.137x elapsed=0:00:15.15    \nframe=  129 fps=8.2 q=36.0 size=       1KiB time=00:00:02.15 bitrate=   2.4kbits/s speed=0.137x elapsed=0:00:15.70    \nframe=  135 fps=8.3 q=44.0 size=     256KiB time=00:00:02.25 bitrate= 932.1kbits/s speed=0.138x elapsed=0:00:16.25    \nframe=  139 fps=8.3 q=45.0 size=     256KiB time=00:00:02.31 bitrate= 905.2kbits/s speed=0.138x elapsed=0:00:16.79    \nframe=  144 fps=8.3 q=43.0 size=     256KiB time=00:00:02.40 bitrate= 873.8kbits/s speed=0.139x elapsed=0:00:17.31    \nframe=  149 fps=8.4 q=44.0 size=     256KiB time=00:00:02.48 bitrate= 844.5kbits/s speed=0.139x elapsed=0:00:17.82    \nframe=  153 fps=8.3 q=45.0 size=     256KiB time=00:00:02.55 bitrate= 822.4kbits/s speed=0.139x elapsed=0:00:18.35    \nframe=  158 fps=8.4 q=44.0 size=     256KiB time=00:00:02.63 bitrate= 796.4kbits/s speed=0.14x elapsed=0:00:18.87    \nframe=  163 fps=8.4 q=45.0 size=     256KiB time=00:00:02.71 bitrate= 772.0kbits/s speed=0.14x elapsed=0:00:19.38    \nframe=  168 fps=8.4 q=43.0 size=     256KiB time=00:00:02.80 bitrate= 749.0kbits/s speed=0.141x elapsed=0:00:19.91    \nframe=  173 fps=8.5 q=44.0 size=     256KiB time=00:00:02.88 bitrate= 727.3kbits/s speed=0.141x elapsed=0:00:20.45    \nframe=  178 fps=8.5 q=44.0 size=     256KiB time=00:00:02.96 bitrate= 706.9kbits/s speed=0.141x elapsed=0:00:20.97    \nframe=  183 fps=8.5 q=44.0 size=     256KiB time=00:00:03.05 bitrate= 687.6kbits/s speed=0.142x elapsed=0:00:21.49    \nframe=  187 fps=8.5 q=45.0 size=     256KiB time=00:00:03.11 bitrate= 672.9kbits/s speed=0.142x elapsed=0:00:22.00    \nframe=  193 fps=8.6 q=43.0 size=     256KiB time=00:00:03.21 bitrate= 652.0kbits/s speed=0.143x elapsed=0:00:22.54    \nframe=  199 fps=8.6 q=44.0 size=     256KiB time=00:00:03.31 bitrate= 632.3kbits/s speed=0.144x elapsed=0:00:23.09    \nframe=  204 fps=8.6 q=44.0 size=     256KiB time=00:00:03.40 bitrate= 616.8kbits/s speed=0.144x elapsed=0:00:23.63    \nframe=  211 fps=8.7 q=45.0 size=     256KiB time=00:00:03.50 bitrate= 599.2kbits/s speed=0.145x elapsed=0:00:24.16    \nframe=  216 fps=8.7 q=44.0 size=     256KiB time=00:00:03.60 bitrate= 582.5kbits/s speed=0.146x elapsed=0:00:24.73    \nframe=  222 fps=8.8 q=45.0 size=     256KiB time=00:00:03.70 bitrate= 566.8kbits/s speed=0.147x elapsed=0:00:25.25    \nframe=  227 fps=8.8 q=43.0 size=     256KiB time=00:00:03.78 bitrate= 554.3kbits/s speed=0.147x elapsed=0:00:25.78    \nframe=  233 fps=8.9 q=44.0 size=     256KiB time=00:00:03.88 bitrate= 540.0kbits/s speed=0.148x elapsed=0:00:26.31    \nframe=  239 fps=8.9 q=45.0 size=     256KiB time=00:00:03.96 bitrate= 528.7kbits/s speed=0.148x elapsed=0:00:26.83    \nframe=  245 fps=8.9 q=45.0 size=     256KiB time=00:00:04.08 bitrate= 513.6kbits/s speed=0.149x elapsed=0:00:27.39    \nframe=  251 fps=9.0 q=44.0 size=     256KiB time=00:00:04.18 bitrate= 501.3kbits/s speed=0.15x elapsed=0:00:27.93    \nframe=  256 fps=9.0 q=45.0 size=     256KiB time=00:00:04.26 bitrate= 491.5kbits/s speed=0.15x elapsed=0:00:28.45    \nframe=  266 fps=9.2 q=48.0 size=     768KiB time=00:00:04.41 bitrate=1424.5kbits/s speed=0.152x elapsed=0:00:28.98    \nframe=  270 fps=9.2 q=43.0 size=     768KiB time=00:00:04.50 bitrate=1398.1kbits/s speed=0.153x elapsed=0:00:29.50    \nframe=  275 fps=9.1 q=44.0 size=     768KiB time=00:00:04.58 bitrate=1372.7kbits/s speed=0.152x elapsed=0:00:30.05    \nframe=  276 fps=9.0 q=44.0 size=     768KiB time=00:00:04.60 bitrate=1367.7kbits/s speed=0.15x elapsed=0:00:30.57    \nframe=  276 fps=8.9 q=44.0 size=     768KiB time=00:00:04.60 bitrate=1367.7kbits/s speed=0.148x elapsed=0:00:31.11    \nframe=  276 fps=8.7 q=44.0 size=     768KiB time=00:00:04.60 bitrate=1367.7kbits/s speed=0.145x elapsed=0:00:31.63    \nframe=  276 fps=8.6 q=44.0 size=     768KiB time=00:00:04.60 bitrate=1367.7kbits/s speed=0.143x elapsed=0:00:32.16    \nframe=  276 fps=8.4 q=44.0 size=     768KiB time=00:00:04.60 bitrate=1367.7kbits/s speed=0.141x elapsed=0:00:32.67    \n[out#0/webm @ 0000019e23c19180] video:1133KiB audio:0KiB subtitle:0KiB other streams:0KiB global headers:0KiB muxing overhead: 0.244095%\nframe=  300 fps=9.1 q=44.0 Lsize=    1136KiB time=00:00:05.00 bitrate=1860.9kbits/s speed=0.152x elapsed=0:00:32.79    \n",
  "seconds": 33.147212743759155,
  "probe_out": {}
}